<?xml version="1.0" standalone="no"?>
<!DOCTYPE svg PUBLIC "-//W3C//DTD SVG 1.1//EN" "http://www.w3.org/Graphics/SVG/1.1/DTD/svg11.dtd" >
<svg xmlns="http://www.w3.org/2000/svg">
<metadata>
This is a custom SVG webfont generated by Font Squirrel.
Copyright   :  1987 1991 1993 2002 Adobe Systems Incorporated All rights reserved
Designer    : Paul Renner
Foundry URL : httpwwwadobecomtype
</metadata>
<defs>
<font id="FuturaStdBoldOblique" horiz-adv-x="1404" >
<font-face units-per-em="2048" ascent="1690" descent="-358" />
<missing-glyph horiz-adv-x="702" />
<glyph unicode=" "  horiz-adv-x="702" />
<glyph unicode="&#x09;" horiz-adv-x="702" />
<glyph unicode="&#xa0;" horiz-adv-x="702" />
<glyph unicode="!" horiz-adv-x="786" d="M184 199q16 100 97 169.5t181.5 69.5t159 -69.5t42.5 -169.5q-16 -98 -96.5 -169t-180.5 -71t-159.5 71t-43.5 169zM285 524l159 1020h387l-159 -1020h-387z" />
<glyph unicode="&#x22;" horiz-adv-x="1024" d="M289 866l51 678h348l-162 -678h-237zM772 866l51 678h348l-161 -678h-238z" />
<glyph unicode="#" d="M195 354l36 232h232l90 254h-197l37 231h240l145 416h217l-145 -416h207l145 416h215l-145 -416h164l-37 -231h-201l-90 -254h192l-36 -232h-242l-123 -354h-217l123 354h-207l-123 -354h-217l123 354h-186zM680 586h209l94 254h-213z" />
<glyph unicode="$" d="M168 178l217 309q66 -72 158 -122t184 -50q72 0 138.5 40t78.5 110q6 33 -6 57.5t-46 44t-63.5 31.5t-86 30.5t-89.5 30.5q-66 27 -110.5 54.5t-87.5 74t-58.5 115t-1.5 158.5q31 186 170.5 327.5t323.5 153.5l39 248h190l-39 -248q221 -20 355 -119l-199 -297 q-106 100 -246 101q-74 0 -129 -29t-63 -86q-4 -33 10 -59.5t50 -47t55.5 -29.5t60.5 -24q100 -35 160.5 -64.5t123 -80.5t84 -126t5.5 -177q-61 -393 -510 -500l-39 -256h-191l37 244q-127 0 -256 51q-153 63 -219 135z" />
<glyph unicode="%" horiz-adv-x="1996" d="M227 1190q29 176 165 275.5t316.5 99.5t286 -99.5t76.5 -275.5q-29 -180 -163 -280.5t-318 -100.5t-288 100.5t-75 280.5zM449 0l1140 1544h201l-1141 -1544h-200zM475 1186q-12 -72 31 -122t114.5 -50t131 50t71.5 122q10 72 -32.5 123t-114.5 51t-131.5 -51t-69.5 -123 zM1171 360q29 176 165.5 275.5t316.5 99.5t285.5 -99t76.5 -276q-29 -180 -164 -280t-319 -100t-287 100t-74 280zM1419 356q-12 -72 31 -122t114.5 -50t131 50.5t71.5 121.5q10 72 -32.5 123t-114.5 51t-131.5 -51t-69.5 -123z" />
<glyph unicode="&#x26;" horiz-adv-x="1736" d="M141 401q27 162 127.5 260.5t272.5 169.5l41 17l-27 45q-61 106 -70 170q-6 47 2 98q20 129 104.5 227.5t200 147.5t242.5 49q195 0 321 -114.5t95 -305.5q-20 -133 -108.5 -218t-237.5 -152l164 -205q147 115 237 219l193 -217l-228 -209l-22 -18l289 -365h-502 l-111 143q-299 -184 -557 -184q-209 0 -334 118.5t-92 323.5zM567 461q-10 -66 37 -104t115 -38q104 0 225 64l-203 262q-162 -92 -174 -184zM872 1186q-6 -35 11.5 -78t31 -62.5t46.5 -64.5q156 80 172 188q10 59 -21 101.5t-90 42.5q-55 0 -98.5 -36t-51.5 -91z" />
<glyph unicode="'" horiz-adv-x="512" d="M274 866l52 678h348l-162 -678h-238z" />
<glyph unicode="(" horiz-adv-x="720" d="M163 215q1 186 30 371q43 268 164.5 550.5t295.5 481.5l203 -127q-293 -375 -383 -930q-39 -209 -18.5 -480t108.5 -446l-244 -127q-80 133 -118.5 327t-37.5 380z" />
<glyph unicode=")" horiz-adv-x="720" d="M43 -365q143 176 243.5 432.5t137.5 493.5q88 547 -88 930l244 127q113 -197 145.5 -493t-12.5 -539q-45 -289 -165 -585t-302 -493z" />
<glyph unicode="*" horiz-adv-x="989" d="M317 1081l201 103l-174 104l119 156l160 -113l22 213h184l-45 -219l201 115l68 -156l-211 -102l176 -107l-117 -153l-162 116l-24 -207h-185l45 205l-190 -110z" />
<glyph unicode="+" d="M238 373l49 307h370l58 371h307l-57 -371h370l-49 -307h-371l-59 -373h-307l59 373h-370z" />
<glyph unicode="," horiz-adv-x="702" d="M0 -289l373 680h350l-483 -680h-240z" />
<glyph unicode="-" horiz-adv-x="802" d="M188 504l50 307h585l-49 -307h-586z" />
<glyph unicode="." horiz-adv-x="702" d="M143 199q16 100 97.5 169.5t181.5 69.5t158.5 -69.5t42.5 -169.5q-16 -98 -96.5 -169t-180.5 -71t-159.5 71t-43.5 169z" />
<glyph unicode="/" horiz-adv-x="1185" d="M25 -190l1081 1890h293l-1082 -1890h-292z" />
<glyph unicode="0" d="M156 531.5q0 117.5 14 240.5q25 156 86 300.5t157.5 266t237 194.5t305.5 73q133 0 236.5 -48.5t164 -130t98.5 -189.5t39 -225.5t-13 -240.5q-25 -156 -86.5 -300t-157.5 -266t-237.5 -194.5t-307.5 -72.5q-133 0 -237.5 48t-164 130t-97 189.5t-37.5 225zM559 634 q0 -75 13.5 -156t59.5 -133t117.5 -52t134 52t101.5 134t62.5 156t34 139.5t10.5 139t-13.5 153.5t-59.5 132t-118 52q-74 0 -135 -52t-100 -132t-62.5 -153.5t-34 -139t-10.5 -140.5z" />
<glyph unicode="1" d="M520 1204l53 340h623l-244 -1544h-401l190 1204h-221z" />
<glyph unicode="2" d="M68 0l739 686q205 190 235 379q12 78 -27.5 139.5t-115.5 61.5q-80 0 -133 -53.5t-66 -135.5q-4 -41 -4 -65h-442q53 268 239.5 431t456.5 163q250 0 399.5 -151.5t110.5 -397.5q-25 -156 -102.5 -266.5t-224.5 -227.5l-277 -223h506l-53 -340h-1241z" />
<glyph unicode="3" d="M150 502h409q-16 -92 35 -155.5t145.5 -63.5t164 57t83.5 149q14 86 -40 146.5t-140 60.5q-27 0 -72 -12l43 268h41q78 0 134.5 46t68.5 124q10 70 -28 113t-105 43q-76 0 -129 -50t-64 -128h-372q61 233 239 373q170 133 414 133q215 0 336 -119t86 -330 q-14 -98 -68.5 -185t-142.5 -132q113 -31 162 -145.5t28 -243.5q-39 -240 -236.5 -376t-445.5 -136q-289 0 -432 174q-63 76 -97.5 184.5t-16.5 204.5z" />
<glyph unicode="4" d="M84 319l41 256l747 969h527l-146 -917h187l-47 -308h-187l-51 -319h-373l52 319h-750zM516 627h365l94 594h-4z" />
<glyph unicode="5" d="M125 78l119 379q172 -178 403 -178q98 0 182 64.5t99 162.5q20 129 -70 196.5t-225 67.5q-160 0 -305 -63l266 837h803l-54 -340h-534l-53 -176l127 10q236 18 366.5 -145.5t93.5 -407.5q-41 -254 -266 -417q-180 -129 -471 -129q-286 0 -481 139z" />
<glyph unicode="6" d="M125 496q49 295 346 614l399 434h455l-520 -522l4 -4q113 47 221 47q219 0 332 -161t78 -382q-43 -272 -260 -427.5t-496 -155.5q-272 0 -418 133q-82 78 -120.5 191.5t-20.5 232.5zM518 510q-16 -106 47.5 -181t168 -75t187.5 74.5t99 181.5q16 104 -43 178t-163.5 74 t-192 -74t-103.5 -178z" />
<glyph unicode="7" d="M86 0l895 1204h-645l53 340h1268l-1131 -1544h-440z" />
<glyph unicode="8" d="M176 406q25 147 124 252.5t249 152.5v4q-102 37 -155.5 133t-33.5 217q33 209 207 325t389 116t352.5 -116t104.5 -325q-20 -123 -103 -219t-196 -131v-4q135 -47 200.5 -152.5t41.5 -252.5q-35 -221 -236.5 -344t-427.5 -123q-141 0 -264 48t-199 157.5t-53 261.5z M590 457q-12 -78 33 -133.5t122 -55.5q76 0 138.5 55.5t74.5 133.5q14 80 -30.5 136t-122.5 56q-76 0 -138.5 -56t-76.5 -136zM715 1153q-10 -72 31.5 -123t111.5 -51q72 0 129 51t68 123q12 72 -29 123t-113 51q-70 0 -128 -51t-70 -123z" />
<glyph unicode="9" d="M209 1022q43 272 260 428t496 156q274 0 419 -133q82 -76 120 -191t20 -235q-45 -287 -346 -615l-398 -432h-456l522 520l-2 4q-117 -47 -226 -47q-219 0 -331.5 161t-77.5 384zM628.5 1034.5q-16.5 -106.5 43 -180.5t164.5 -74q106 0 193 74t103.5 180.5t-46 180 t-168.5 73.5q-104 0 -188.5 -73.5t-101 -180z" />
<glyph unicode=":" horiz-adv-x="702" d="M143 199q16 100 97.5 169.5t181.5 69.5t158.5 -69.5t42.5 -169.5q-16 -98 -96.5 -169t-180.5 -71t-159.5 71t-43.5 169zM254 889q16 100 96 169.5t180.5 69.5t160 -69.5t42.5 -169.5q-16 -98 -97 -169t-181.5 -71t-158.5 71t-42 169z" />
<glyph unicode=";" horiz-adv-x="702" d="M-29 -289l373 680h350l-483 -680h-240zM348 889q16 100 96 169.5t180.5 69.5t160 -69.5t42.5 -169.5q-16 -98 -97 -169t-181 -71t-158.5 71t-42.5 169z" />
<glyph unicode="&#x3c;" d="M266 403l39 246l1061 373l-49 -307l-590 -187v-4l530 -186l-49 -307z" />
<glyph unicode="=" d="M199 127l49 307h1048l-49 -307h-1048zM276 618l50 308h1048l-49 -308h-1049z" />
<glyph unicode="&#x3e;" d="M207 31l49 307l592 186v4l-533 187l50 307l942 -373l-39 -246z" />
<glyph unicode="?" horiz-adv-x="1218" d="M205 1104q39 225 231 358q180 123 408 123q209 0 338 -127q68 -68 101.5 -162t16.5 -192q-27 -166 -145.5 -277.5t-294.5 -164.5l-22 -146h-375l63 397q45 -10 84 -10q98 0 189.5 54.5t107.5 148.5q10 63 -26.5 108.5t-100.5 45.5q-68 0 -112.5 -43t-55.5 -113h-407z M367 199q16 100 97 169.5t181 69.5t158.5 -69.5t42.5 -169.5q-16 -98 -96 -169t-180.5 -71t-159.5 71t-43 169z" />
<glyph unicode="@" horiz-adv-x="1515" d="M133 772q55 346 318.5 579.5t592.5 233.5q283 0 453 -178q197 -205 154 -479q-41 -264 -197 -436q-170 -188 -344 -181q-43 2 -73.5 36t-35.5 83q-119 -119 -280 -119q-137 0 -223 113t-60 268q31 197 171.5 345.5t324.5 148.5q164 0 231 -127l37 108h195l-187 -532 q-37 -104 -24 -125q8 -12 28 -10q59 6 143.5 117.5t112.5 238.5q53 250 -82 393.5t-380 143.5q-258 0 -449.5 -175.5t-232.5 -445.5q-45 -279 103.5 -449.5t416.5 -170.5q236 0 379 81l147 -135q-295 -139 -573 -139q-334 0 -527.5 232.5t-138.5 580.5zM688 725 q-12 -80 20.5 -134t104.5 -54q86 0 145.5 67.5t83.5 157.5q25 88 -8 143.5t-108 55.5q-84 0 -154 -74t-84 -162z" />
<glyph unicode="A" horiz-adv-x="1599" d="M-8 0l837 1544h439l338 -1544h-428l-58 268h-553l-149 -268h-426zM727 575h334l-86 492h-4z" />
<glyph unicode="B" horiz-adv-x="1386" d="M131 0l244 1544h573q403 0 403 -310q0 -43 -8 -91q-33 -227 -219 -316v-4q156 -20 217 -123q43 -71 43 -174q0 -45 -8 -96q-25 -154 -124 -254t-225 -138t-277 -38h-619zM582 307h51h66q17 0 67.5 4t75 14.5t58.5 28t52.5 47t24.5 70.5q3 18 3 33q0 21 -5 39 q-8 31 -27.5 48t-47.5 28.5t-60.5 14.5t-66.5 5q-17 1 -33.5 1t-32.5 -1h-33h-41zM682 938h45q217 0 240 149q2 15 2 29q0 23 -6 41q-10 29 -27.5 44.5t-51.5 23.5t-60.5 10t-65.5 2h-29z" />
<glyph unicode="C" horiz-adv-x="1351" d="M176 770q51 330 316 565q133 117 299.5 183.5t328.5 66.5q176 0 355 -78l-78 -481q-47 82 -134 126t-192 44q-182 0 -316 -123t-163 -305q-7 -42 -7 -80q0 -131 75 -222q97 -118 284 -118q98 0 197.5 44t175.5 120l-78 -481q-244 -72 -365 -72q-330 0 -544 227 q-166 176 -166 436q0 71 12 148z" />
<glyph unicode="D" horiz-adv-x="1540" d="M131 0l244 1544h569q324 0 519 -224q155 -178 155 -418q0 -63 -10 -130q-51 -324 -317.5 -548t-590.5 -224h-569zM586 340h90q193 0 336 108.5t178 323.5q7 47 7 89q0 140 -79 229q-102 115 -301 114h-94z" />
<glyph unicode="E" horiz-adv-x="1126" d="M131 0l244 1544h878l-53 -340h-477l-41 -258h453l-54 -340h-452l-43 -266h477l-53 -340h-879z" />
<glyph unicode="F" horiz-adv-x="1110" d="M131 0l244 1544h887l-54 -340h-485l-41 -258h440l-53 -340h-440l-97 -606h-401z" />
<glyph unicode="G" horiz-adv-x="1724" d="M174 764q59 375 326.5 603t642.5 228q242 0 402.5 -108.5t226.5 -323.5l-406 -159q-25 115 -100.5 180t-194.5 65q-186 0 -317 -147.5t-162 -339.5q-8 -50 -8 -97q0 -133 64 -241q87 -145 276 -145q135 0 234 69.5t130 198.5h-327l51 315h796q-37 -201 -89 -340 t-167 -270q-264 -303 -684 -303q-365 0 -558 226q-149 175 -149 430q0 76 13 159z" />
<glyph unicode="H" horiz-adv-x="1644" d="M131 0l244 1544h401l-94 -596h580l94 596h401l-244 -1544h-401l100 633h-579l-101 -633h-401z" />
<glyph unicode="I" horiz-adv-x="663" d="M131 0l244 1544h401l-244 -1544h-401z" />
<glyph unicode="J" horiz-adv-x="1001" d="M-2 186l270 244q78 -131 142 -131q41 0 70.5 20.5t46 64.5t21.5 66.5t13 75.5l160 1018h401l-164 -1042q-39 -252 -193.5 -397.5t-404 -145.5t-362.5 227z" />
<glyph unicode="K" horiz-adv-x="1552" d="M131 0l244 1544h401l-100 -637h4l586 637h497l-729 -731l541 -813h-520l-412 670h-4l-107 -670h-401z" />
<glyph unicode="L" horiz-adv-x="1013" d="M131 0l244 1544h401l-190 -1204h481l-53 -340h-883z" />
<glyph unicode="M" horiz-adv-x="2013" d="M39 0l506 1544h395l184 -825l461 825h400l-11 -1544h-401l29 889h-5l-512 -889h-159l-213 889h-4l-271 -889h-399z" />
<glyph unicode="N" horiz-adv-x="1804" d="M131 0l244 1544h401l586 -944h4l150 944h401l-244 -1544h-401l-586 946h-4l-150 -946h-401z" />
<glyph unicode="O" horiz-adv-x="1816" d="M180 801q35 227 185.5 411.5t360.5 283.5t433 99q166 0 311.5 -59t248 -161.5t149.5 -253.5q30 -96 30 -200q0 -59 -10 -120q-59 -375 -337.5 -613.5t-651.5 -238.5t-575 239q-157 185 -157 451q0 78 13 162zM598 799q-8 -46 -8 -89q0 -139 82 -240q106 -132 288.5 -132 t330 132t179.5 329q5 30 5 58q0 126 -90 226q-110 123 -287.5 123t-326 -122.5t-173.5 -284.5z" />
<glyph unicode="P" horiz-adv-x="1353" d="M131 0l244 1544h614q260 0 391 -126q100 -96 100 -267q0 -54 -10 -115q-82 -524 -628 -524h-228l-82 -512h-401zM666 836h67q57 0 87 1t77 11t72.5 28.5t49 55.5t32.5 92q4 25 3 47q0 27 -5 48q-10 38 -29 58.5t-62 30t-74.5 11.5t-90.5 2h-68z" />
<glyph unicode="Q" horiz-adv-x="1816" d="M180 801q35 227 185.5 411.5t360.5 283.5t433 99q367 0 575 -228q162 -178 161 -441q0 -75 -13 -158q-45 -297 -285 -543l220 -264l-377 -57l-101 145q-184 -100 -440 -100q-373 0 -575 239q-157 185 -157 451q0 78 13 162zM598 799q-8 -46 -8 -89q0 -139 83 -240 q108 -132 290 -132q66 0 127 20l-209 246l385 47l92 -112q86 98 106 227q6 37 6 72q0 132 -85 236q-108 132 -285.5 132t-327 -122.5t-174.5 -284.5z" />
<glyph unicode="R" horiz-adv-x="1392" d="M131 0l244 1544h600q242 0 371 -119q100 -92 100 -256q0 -47 -8 -100q-27 -166 -135.5 -286.5t-272.5 -149.5l385 -633h-500l-284 594h-4l-95 -594h-401zM668 852h39q279 0 309 192q4 22 4 42q0 33 -11 59q-17 41 -58.5 59.5t-83.5 25.5t-99 7h-39z" />
<glyph unicode="S" horiz-adv-x="1261" d="M82 135l223 324q160 -160 332 -160q78 0 142.5 40t76.5 116q4 27 -2 49t-29.5 41.5t-36 30t-53.5 24.5t-47 16t-47 15q-45 14 -77 24.5t-69.5 24.5t-62 28.5t-51.5 35t-43 42t-30.5 51t-18.5 63.5t-4 76t8 91q37 233 209 375.5t405 142.5q258 0 463 -127l-209 -311 q-109 102 -250 102q-63 0 -123.5 -34.5t-68.5 -94.5q-4 -33 7 -57.5t41 -43t50.5 -26.5t54.5 -20l99 -31q172 -53 257 -150q64 -73 63 -189q0 -39 -7 -83q-45 -281 -225 -416q-195 -145 -461 -145q-291 0 -516 176z" />
<glyph unicode="T" horiz-adv-x="1091" d="M203 1204l53 340h1065l-53 -340h-332l-191 -1204h-401l191 1204h-332z" />
<glyph unicode="U" horiz-adv-x="1593" d="M206 474q5 77 23 202l138 868h401l-127 -813q-12 -74 -16 -123q-2 -22 -2 -46q0 -30 3 -64q5 -61 26.5 -98.5t70.5 -63t123 -25.5t131 25.5t91 62.5t58.5 99.5t36 110.5t23.5 122l127 813h401l-137 -868q-29 -188 -78 -316.5t-170 -228.5q-203 -172 -538 -172 q-338 0 -486 172q-61 70 -83 168q-17 79 -17 145q0 15 1 30z" />
<glyph unicode="V" horiz-adv-x="1558" d="M213 1544h436l225 -938l523 938h436l-903 -1544h-312z" />
<glyph unicode="W" horiz-adv-x="2287" d="M213 1544h418l110 -997h4l482 997h319l146 -997h4l448 997h418l-737 -1544h-410l-129 895h-4l-444 -895h-408z" />
<glyph unicode="X" horiz-adv-x="1615" d="M-16 0l735 825l-381 719h493l175 -399l297 399h493l-606 -719l440 -825h-483l-244 504l-434 -504h-485z" />
<glyph unicode="Y" horiz-adv-x="1462" d="M205 1544h481l223 -420l355 420h481l-696 -803l-117 -741h-402l117 741z" />
<glyph unicode="Z" horiz-adv-x="1447" d="M23 0l921 1204h-606l53 340h1278l-917 -1204h647l-53 -340h-1323z" />
<glyph unicode="[" horiz-adv-x="716" d="M29 -492l333 2110h504l-35 -217h-219l-264 -1675h219l-35 -218h-503z" />
<glyph unicode="\" horiz-adv-x="1185" d="M324 1700h294l512 -1700h-290z" />
<glyph unicode="]" horiz-adv-x="716" d="M29 -492l34 218h220l264 1675h-219l34 217h504l-334 -2110h-503z" />
<glyph unicode="^" d="M342 834l492 772h245l246 -772l-254 -138l-172 551l-344 -551z" />
<glyph unicode="_" horiz-adv-x="1024" d="M-41 -256l16 102h1024l-16 -102h-1024z" />
<glyph unicode="`" horiz-adv-x="823" d="M393 1516l254 163l234 -352l-187 -121z" />
<glyph unicode="a" horiz-adv-x="1396" d="M131 526q37 231 211 395t403 164q209 0 304 -137l16 103h373l-166 -1051h-373l19 117h-5q-59 -74 -151 -113t-191 -39q-229 0 -353 165q-95 127 -95 294q0 49 8 102zM516 524q-4 -24 -4 -46q0 -72 41 -123q53 -67 163.5 -66.5t186.5 67t92 168.5q4 23 4 45q0 71 -42 124 q-54 69 -164.5 69t-185.5 -69t-91 -169z" />
<glyph unicode="b" horiz-adv-x="1396" d="M111 0l268 1700h373l-119 -752q139 137 348 137q229 0 352 -163q95 -126 95 -292q0 -50 -9 -104q-37 -233 -214 -397t-406 -164q-98 0 -177 38t-116 114h-4l-19 -117h-372zM555 524q-4 -24 -4 -46q0 -72 41 -123q53 -67 163.5 -66.5t186.5 67t92 168.5q4 23 4 45 q0 71 -42 124q-54 69 -164.5 69t-185.5 -69t-91 -169z" />
<glyph unicode="c" horiz-adv-x="989" d="M129 514q39 250 233.5 410.5t444.5 160.5q135 0 235 -61l-49 -315q-88 74 -180 73q-109 0 -195 -73.5t-102 -182.5q-4 -26 -4 -49q0 -80 48 -136q62 -73 177 -73q109 0 197 72l-49 -315q-127 -59 -273 -60q-238 0 -379 157q-112 124 -112 298q0 45 8 94z" />
<glyph unicode="d" horiz-adv-x="1396" d="M145 526q37 231 211 395t404 164q209 0 303 -137l119 752h372l-268 -1700h-373l19 117h-4q-59 -74 -151.5 -113t-190.5 -39q-229 0 -354 165q-95 127 -95 294q0 49 8 102zM530 524q-4 -24 -3 -46q0 -72 40 -123q53 -67 164 -66.5t186.5 67t92.5 168.5q4 23 3 45 q0 71 -41 124q-54 69 -165 69t-186 -69t-91 -169z" />
<glyph unicode="e" horiz-adv-x="1249" d="M129 524q41 260 225.5 410.5t444.5 150.5q272 0 399 -156q95 -117 95 -298q0 -61 -11 -129l-6 -39h-784q-5 -32 -6 -59q0 -174 202 -175q121 0 193 97h358q-68 -174 -242 -273q-156 -88 -350 -88q-270 0 -415 148q-112 115 -112 300q0 53 9 111zM530 678h433 q-2 74 -54.5 120t-130.5 46q-84 0 -150.5 -43t-97.5 -123z" />
<glyph unicode="f" horiz-adv-x="794" d="M145 743l50 308h131l22 133q20 131 51 210t113 158q168 168 393 168q88 0 154 -37l-51 -321q-74 35 -125 35q-70 0 -106 -42t-52 -134l-27 -170h260l-49 -308h-260l-117 -743h-372l116 743h-131z" />
<glyph unicode="g" horiz-adv-x="1386" d="M49 -123h418q8 -51 57 -80q45 -25 103 -24q139 0 202.5 77.5t85.5 223.5l9 49q-168 -143 -359 -143q-227 0 -348 153q-93 118 -92 280q0 49 8 103q37 236 215 402.5t414 166.5q207 0 287 -145h4l16 111h373l-150 -949q-53 -326 -231 -476t-477 -150q-207 0 -374 105 q-161 102 -161 283v13zM520 532q-4 -24 -4 -45q0 -72 42 -123q54 -67 165 -67t185.5 66.5t90.5 168.5q4 24 4 46q0 71 -40 123q-53 69 -164 69t-187 -69t-92 -169z" />
<glyph unicode="h" horiz-adv-x="1353" d="M123 0l268 1700h373l-123 -782h4q154 168 363 167q195 0 275 -117q59 -85 59 -218q0 -50 -9 -107l-102 -643h-373l86 539q7 74 7 122q0 53 -32 90q-34 38 -104 37q-102 0 -159.5 -72.5t-73.5 -176.5l-86 -539h-373z" />
<glyph unicode="i" horiz-adv-x="618" d="M123 0l166 1051h373l-166 -1051h-373zM330 1454q14 86 85.5 147.5t157.5 61.5t138 -61q40 -48 40 -111q0 -18 -3 -37q-12 -86 -84 -147.5t-158 -61.5t-137 62q-41 50 -42 115q1 15 3 32z" />
<glyph unicode="j" horiz-adv-x="618" d="M39 -524l250 1575h373l-250 -1575h-373zM330 1454q14 86 85.5 147.5t157.5 61.5t138 -61q40 -48 40 -111q0 -18 -3 -37q-12 -86 -84 -147.5t-158 -61.5t-137 62q-41 50 -42 115q1 15 3 32z" />
<glyph unicode="k" horiz-adv-x="1409" d="M123 0l268 1700h373l-162 -1028l447 379h510l-603 -486l469 -565h-522l-340 428l-67 -428h-373z" />
<glyph unicode="l" horiz-adv-x="618" d="M123 0l268 1700h373l-268 -1700h-373z" />
<glyph unicode="m" horiz-adv-x="2025" d="M123 0l166 1051h373l-21 -131h4q152 166 359 165q250 0 325 -200q70 96 174.5 148t214.5 52q302 0 303 -299q0 -53 -10 -116l-106 -670h-373l80 502q12 81 12 135q0 60 -14 90q-27 61 -107 61q-61 0 -104 -25.5t-65.5 -73.5t-34 -88t-19.5 -99l-80 -502h-373l80 502 q6 41 9.5 63.5t5.5 63.5v17q0 29 -6 48q-7 25 -19 51.5t-41 39t-68 12.5q-47 0 -83.5 -21.5t-57 -47.5t-37 -74t-21.5 -75.5t-14 -76.5l-79 -502h-373z" />
<glyph unicode="n" horiz-adv-x="1353" d="M123 0l166 1051h373l-21 -136h4q78 92 164 131t199 39q203 0 280 -115q55 -81 55 -207q0 -53 -10 -114l-102 -649h-373l82 512q0 6 5 34.5t6 41t3 40t0 42t-6 36t-15 34t-25.5 25.5t-38 18t-54.5 5q-195 0 -233 -243l-86 -545h-373z" />
<glyph unicode="o" horiz-adv-x="1355" d="M129 524q39 258 247 409.5t474 151.5t426 -151q127 -121 127 -309q0 -48 -8 -101q-29 -172 -137.5 -301t-261 -193.5t-324.5 -64.5q-264 0 -424 151q-127 120 -127 307q0 48 8 101zM522 524q-4 -24 -4 -46q0 -72 41 -123q53 -67 164 -66.5t186.5 67t91.5 168.5q4 23 4 45 q0 71 -41 124q-54 69 -165 69t-186 -69t-91 -169z" />
<glyph unicode="p" horiz-adv-x="1396" d="M27 -524l249 1575h373l-18 -119h4q61 76 153.5 114.5t188.5 38.5q229 0 353 -165q95 -128 96 -295q0 -50 -9 -103q-37 -231 -211 -394t-403 -163q-207 0 -303 135l-101 -624h-372zM555 524q-4 -24 -4 -46q0 -72 41 -123q53 -67 163.5 -66.5t186.5 67t92 168.5q4 23 4 45 q0 71 -42 124q-54 69 -164.5 69t-185.5 -69t-91 -169z" />
<glyph unicode="q" horiz-adv-x="1396" d="M143 522q37 229 215.5 396t405.5 167q98 0 178 -38.5t115 -114.5h4l18 119h373l-250 -1575h-373l101 624q-135 -135 -348 -135q-229 0 -353 162q-95 124 -94 291q-1 50 8 104zM530 524q-4 -24 -3 -46q0 -72 40 -123q53 -67 164 -66.5t186.5 67t92.5 168.5q4 23 3 45 q0 71 -41 124q-54 69 -165 69t-186 -69t-91 -169z" />
<glyph unicode="r" horiz-adv-x="927" d="M123 0l166 1051h373l-27 -172h4q133 186 369 186h71l-55 -358q-57 35 -154 34q-145 0 -213.5 -83t-93.5 -234l-67 -424h-373z" />
<glyph unicode="s" horiz-adv-x="1050" d="M68 86l176 260q53 -43 133 -74.5t145 -31.5q43 0 83 20.5t46 58.5q4 23 -5 40.5t-34.5 28.5t-47 17.5t-63.5 15.5t-65 15q-102 29 -156 89q-39 44 -40 123q0 30 6 65q20 123 103 210t190.5 124.5t228.5 37.5q199 0 336 -67l-164 -238q-86 51 -192 51q-41 0 -81 -17 t-46 -54q-2 -14 2 -26.5t15 -22t21.5 -15.5t29 -11t29.5 -7t30.5 -5t25.5 -5q261 -54 261 -256q0 -27 -5 -56q-31 -193 -193.5 -292t-365.5 -99q-225 0 -403 121z" />
<glyph unicode="t" horiz-adv-x="737" d="M154 743l49 308h121l51 315h373l-52 -315h211l-49 -308h-211l-117 -743h-372l116 743h-120z" />
<glyph unicode="u" horiz-adv-x="1349" d="M182 418l101 633h372l-88 -562q-6 -40 -6 -73q0 -60 20 -97q30 -57 136 -57q109 0 158 58.5t65 168.5l88 562h373l-101 -633q-70 -453 -630 -453q-258 0 -391 105q-104 82 -105 249q0 46 8 99z" />
<glyph unicode="v" horiz-adv-x="1275" d="M135 1051h418l168 -539l334 539h418l-715 -1051h-238z" />
<glyph unicode="w" horiz-adv-x="2039" d="M135 1051h414l172 -570l354 570h221l174 -570l355 570h411l-714 -1051h-242l-168 575l-352 -575h-242z" />
<glyph unicode="x" horiz-adv-x="1458" d="M-31 0l615 569l-351 482h474l153 -217l223 217h482l-510 -482l434 -569h-490l-221 311l-319 -311h-490z" />
<glyph unicode="y" horiz-adv-x="1339" d="M35 -524l465 667l-365 908h430l197 -539l358 539h424l-1091 -1575h-418z" />
<glyph unicode="z" horiz-adv-x="1144" d="M16 0l611 741h-428l49 310h1048l-608 -742h442l-49 -309h-1065z" />
<glyph unicode="{" horiz-adv-x="720" d="M147 465l33 213q94 0 129 37q27 27 33 71l82 519q23 147 116 230t165 83h198l-39 -246h-51q-33 0 -55.5 -9t-33.5 -30.5t-15 -37t-9 -44.5l-73 -460q-29 -186 -232 -218v-4q16 -2 22.5 -3t26 -5t27.5 -9t26.5 -14.5t24.5 -21.5t19.5 -29.5t13.5 -40t5 -52t-5 -64.5 l-74 -455q-14 -45 -0.5 -83t76.5 -38h51l-39 -246h-198q-72 0 -138.5 83t-44.5 227l82 518q6 23 3 39t-3 29.5t-9 22.5t-12 16.5t-16 11.5l-18 6q-6 2 -19.5 3t-17.5 1h-16h-15z" />
<glyph unicode="|" horiz-adv-x="1017" d="M496 -625v2499h280v-2499h-280z" />
<glyph unicode="}" horiz-adv-x="720" d="M-4 -492l39 246h51q33 0 55.5 9.5t33.5 30t15.5 36.5t8.5 45l73 455q10 61 32 107t44.5 68.5t57 38t52 18.5t48.5 7v4q-190 31 -162 218l74 460q14 43 -0.5 82t-75.5 39h-51l39 246h198q72 0 138.5 -83t44.5 -230l-82 -519q-6 -39 3 -63.5t33.5 -32.5t40 -10t39.5 -2h9 l-33 -213h-15h-20q-6 0 -20.5 -1t-22.5 -5t-21.5 -10.5t-21.5 -15.5t-17.5 -22.5t-15.5 -33t-10 -41.5l-82 -518q-23 -143 -116 -226.5t-164 -83.5h-199z" />
<glyph unicode="~" d="M178 487q18 18 81 91t102.5 113t104 79t124.5 39q109 0 244 -115q115 -102 204 -102q63 0 154 172l203 -199q-53 -70 -83 -105.5t-89.5 -96t-119 -89t-118.5 -28.5q-25 0 -49.5 5t-41.5 10t-42 18.5t-35 19.5t-35.5 23.5t-31.5 21.5q-23 14 -73 51t-80 52.5t-58 15.5 q-55 0 -162 -172z" />
<glyph unicode="&#xa2;" d="M412 772q35 229 204.5 383t401.5 176l31 191h190l-33 -203l113 -35l-53 -334q-68 78 -166 78q-111 0 -196 -70.5t-103 -179.5q-16 -104 43 -178t164 -74q125 0 204 78l-53 -334q-82 -29 -125 -32l-33 -218h-190l31 203q-213 8 -339 171t-91 378z" />
<glyph unicode="&#xa3;" d="M53 0q49 143 162 251.5t248 110.5q72 113 4 252h-330l25 156h221q-55 115 -33 262q35 231 228 391q178 150 456 150q301 0 411.5 -138.5t65.5 -443.5h-397l10 72q12 78 -32.5 136t-122.5 58q-90 0 -152.5 -62t-77.5 -155q-20 -147 43 -270h320l-25 -156h-291 q10 -53 -3 -138t-42 -136l23 -8q178 -70 291 -70q47 0 79.5 26.5t41.5 73.5h249q-43 -182 -149 -282q-117 -113 -291 -113q-29 0 -56.5 3t-58 10.5t-49 12.5t-56.5 16t-52 16q-174 51 -252 51q-111 0 -142 -76h-266z" />
<glyph unicode="&#xa5;" d="M197 586l24 155h408l-88 172h-291l24 156h189l-242 475h455l205 -420l336 420h454l-391 -475h186l-24 -156h-291l-143 -172h405l-24 -155h-406l-92 -586h-377l92 586h-409z" />
<glyph unicode="&#xa7;" d="M121 6h375q-14 -78 40 -132t132 -54q66 0 117 37t61 100q2 20 0 37.5t-12.5 33t-17.5 24.5t-27.5 22.5t-26.5 17.5t-33 17.5t-29 15.5l-299 158q-221 119 -186 338q29 188 229 333q-78 88 -55 240q29 184 184.5 287.5t346.5 103.5q129 0 226 -37t154.5 -124t42.5 -218 h-321q-4 55 -37 89t-88 34q-47 0 -85 -28.5t-46 -75.5q-4 -25 2 -47.5t15.5 -36t32 -30.5t33.5 -24.5t42 -22.5t37 -20l209 -114q72 -39 110.5 -65.5t79.5 -70.5t52.5 -101.5t-1.5 -135.5q-29 -184 -223 -321q90 -92 64 -267q-23 -141 -118 -244.5t-221 -149.5t-266 -46 q-150 0 -269.5 50t-187 161.5t-36.5 265.5zM543 707q-4 -29 2 -50.5t30.5 -42t35 -26.5t46.5 -27q10 -6 15 -8l315 -170q59 41 70 111q4 29 -4.5 53t-32 43.5t-40.5 30t-48 26.5l-309 170q-70 -36 -80 -110z" />
<glyph unicode="&#xa8;" horiz-adv-x="1236" d="M381 1438q14 84 82.5 142t152.5 58t133.5 -59t34.5 -141q-14 -84 -80.5 -142.5t-150.5 -58.5t-135 58.5t-37 142.5zM905.5 1438q14.5 84 83 142t152.5 58t133 -59t35 -141q-14 -84 -81 -142.5t-151 -58.5t-135 58.5t-36.5 142.5z" />
<glyph unicode="&#xa9;" horiz-adv-x="1638" d="M131 770q53 340 326.5 577.5t613.5 237.5q338 0 536.5 -237.5t145.5 -577.5q-53 -336 -327.5 -573.5t-612.5 -237.5t-536.5 236.5t-145.5 574.5zM324 770q-43 -268 105.5 -443t414.5 -175q264 0 469 175t248 443q43 270 -106.5 446.5t-414.5 176.5q-266 0 -469.5 -175.5 t-246.5 -447.5zM526 778q33 207 174.5 338t346.5 131q147 0 240 -83t95 -224h-184q-2 72 -51 111t-127 39q-117 0 -199 -90.5t-100 -217.5q-20 -123 37 -218t170 -95q76 0 140.5 43t78.5 115h184q-39 -143 -160.5 -229.5t-267.5 -86.5q-201 0 -304.5 134t-72.5 333z" />
<glyph unicode="&#xaa;" horiz-adv-x="837" d="M221.5 1249.5q22.5 139.5 134 237.5t260.5 98q135 0 197 -82l10 62h242l-100 -631h-242l12 70h-4q-76 -90 -219 -91q-150 0 -231.5 98.5t-59 238zM471 1249q-10 -59 29 -101t104 -42q63 0 115.5 42t62.5 101q8 59 -29.5 101.5t-103 42.5t-118 -42.5t-60.5 -101.5z" />
<glyph unicode="&#xab;" horiz-adv-x="1234" d="M158 655l432 504l182 -141l-315 -363l207 -356l-234 -147zM668 655l432 504l182 -141l-315 -363l207 -356l-234 -147z" />
<glyph unicode="&#xac;" d="M276 618l50 308h1048l-102 -637h-307l53 329h-742z" />
<glyph unicode="&#xad;" horiz-adv-x="802" d="M188 504l50 307h585l-49 -307h-586z" />
<glyph unicode="&#xae;" horiz-adv-x="1638" d="M131 770q53 340 326.5 577.5t613.5 237.5q338 0 536.5 -237.5t145.5 -577.5q-53 -336 -327.5 -573.5t-612.5 -237.5t-536.5 236.5t-145.5 574.5zM324 770q-43 -268 105.5 -443t414.5 -175q264 0 469 175t248 443q43 270 -106.5 446.5t-414.5 176.5q-266 0 -469.5 -175.5 t-246.5 -447.5zM553 358l133 844h410q166 0 238.5 -51t47.5 -207q-18 -115 -83.5 -168t-182.5 -61l150 -357h-205l-133 357h-131l-56 -357h-188zM817 842h225q78 0 117 25.5t51 101.5q4 31 -8 49t-45 25.5t-56.5 9.5t-66.5 2h-182z" />
<glyph unicode="&#xaf;" horiz-adv-x="1234" d="M362 1321l35 219h926l-35 -219h-926z" />
<glyph unicode="&#xb0;" horiz-adv-x="819" d="M305 1276q16 127 120.5 218t233.5 91q127 0 204 -91t57 -218q-20 -125 -126 -215t-233 -90q-129 0 -202.5 89t-53.5 216zM479 1278q-8 -55 25 -94t88 -39t99 39t54 94q8 55 -25.5 94t-88.5 39q-53 0 -99.5 -40t-52.5 -93z" />
<glyph unicode="&#xb1;" d="M178 0l49 307h1049l-49 -307h-1049zM295 741l49 308h371l47 290h307l-47 -290h371l-50 -308h-370l-45 -290h-307l45 290h-371z" />
<glyph unicode="&#xb4;" horiz-adv-x="823" d="M365 1327l344 352l200 -163l-399 -310z" />
<glyph unicode="&#xb5;" horiz-adv-x="1349" d="M33 -524l250 1575h372l-88 -562q-16 -113 13.5 -170t136.5 -57q109 0 158 58.5t65 168.5l88 562h373l-101 -633q-20 -127 -80.5 -220.5t-143.5 -141.5t-164 -69.5t-160 -21.5q-160 0 -252 101l-94 -590h-373z" />
<glyph unicode="&#xb6;" d="M262 1034q10 186 175 348t345 162h772l-28 -186h-135l-271 -1706h-207l271 1704h-191l-270 -1704h-207l150 942q-94 8 -165 33.5t-129.5 75t-87 133t-22.5 198.5z" />
<glyph unicode="&#xb7;" horiz-adv-x="702" d="M197 524q16 100 96 170t180 70t159.5 -69.5t43.5 -170.5q-16 -98 -98 -168.5t-181 -70.5q-100 0 -158 70.5t-42 168.5z" />
<glyph unicode="&#xb8;" horiz-adv-x="778" d="M92 -385l318 324l182 -132l-356 -292z" />
<glyph unicode="&#xba;" horiz-adv-x="839" d="M208.5 1249.5q24.5 155.5 158 245.5t305.5 90t277.5 -90t81 -245.5t-159 -246t-306.5 -90.5t-276.5 90.5t-80 246zM465 1249.5q-10 -59.5 27.5 -100.5t103.5 -41t117 41t61 100.5t-29.5 100.5t-103 41t-115 -41t-61.5 -100.5z" />
<glyph unicode="&#xbb;" horiz-adv-x="1234" d="M156 299l321 356l-201 363l228 141l272 -504l-432 -503zM666 299l321 356l-201 363l228 141l272 -504l-432 -503z" />
<glyph unicode="&#xc0;" horiz-adv-x="1599" d="M-8 0l837 1544h439l338 -1544h-428l-58 268h-553l-149 -268h-426zM727 575h334l-86 492h-4zM811 1948l252 163l233 -352l-184 -121z" />
<glyph unicode="&#xc1;" horiz-adv-x="1599" d="M-8 0l837 1544h439l338 -1544h-428l-58 268h-553l-149 -268h-426zM727 575h334l-86 492h-4zM862 1759l344 352l203 -163l-399 -310z" />
<glyph unicode="&#xc2;" horiz-adv-x="1599" d="M-8 0l837 1544h439l338 -1544h-428l-58 268h-553l-149 -268h-426zM635 1794l500 336l399 -336l-186 -172l-258 227l-332 -227zM727 575h334l-86 492h-4z" />
<glyph unicode="&#xc3;" horiz-adv-x="1599" d="M-8 0l837 1544h439l338 -1544h-428l-58 268h-553l-149 -268h-426zM662 1694l2 22q16 104 73 182q86 115 201 115q55 0 169 -34.5t153 -34.5q35 0 54 17t40 56h174q-31 -127 -114 -225t-204 -98q-53 0 -152.5 37.5t-146.5 37.5q-23 0 -40 -13t-22 -23l-20 -39h-167z M727 575h334l-86 492h-4z" />
<glyph unicode="&#xc4;" horiz-adv-x="1599" d="M-8 0l837 1544h439l338 -1544h-428l-58 268h-553l-149 -268h-426zM633 1870q12 84 80.5 142.5t152.5 58.5q82 0 132.5 -58.5t37.5 -142.5q-14 -84 -81.5 -142.5t-151.5 -58.5t-134 58.5t-36 142.5zM727 575h334l-86 492h-4zM1157 1870q12 84 81 142.5t153 58.5 q82 0 132 -58.5t38 -142.5q-14 -84 -82 -142.5t-152 -58.5t-134 58.5t-36 142.5z" />
<glyph unicode="&#xc5;" horiz-adv-x="1599" d="M-8 0l837 1544h439l338 -1544h-428l-58 268h-553l-149 -268h-426zM727 575h334l-86 492h-4zM776 1833q18 123 117.5 180.5t230.5 57.5q133 0 217 -56.5t64 -179.5q-20 -121 -119.5 -178.5t-228.5 -57.5q-84 0 -148.5 20.5t-105.5 75t-27 138.5zM971 1835 q-6 -45 25.5 -66.5t80.5 -21.5t88 21.5t45.5 66.5t-25.5 66.5t-79 21.5q-121 0 -135 -88z" />
<glyph unicode="&#xc6;" horiz-adv-x="2101" d="M-8 0l839 1544h947l71 -340h-508l54 -258h506l75 -340h-510l58 -266h508l69 -340h-930l-57 268h-559l-139 -268h-424zM715 575h340l-94 459z" />
<glyph unicode="&#xc7;" horiz-adv-x="1351" d="M176 770q51 330 316 565q133 117 299.5 183.5t328.5 66.5q176 0 355 -78l-78 -481q-47 82 -134 126t-192 44q-182 0 -316 -123t-163 -305q-29 -184 68.5 -302t283.5 -118q98 0 197.5 44t175.5 120l-78 -481q-244 -72 -365 -72q-330 0 -544 227q-211 224 -154 584z M430 -385l318 324l182 -132l-357 -292z" />
<glyph unicode="&#xc8;" horiz-adv-x="1126" d="M131 0l244 1544h878l-53 -340h-477l-41 -258h453l-54 -340h-452l-43 -266h477l-53 -340h-879zM614 1948l252 163l234 -352l-185 -121z" />
<glyph unicode="&#xc9;" horiz-adv-x="1126" d="M131 0l244 1544h878l-53 -340h-477l-41 -258h453l-54 -340h-452l-43 -266h477l-53 -340h-879zM584 1759l344 352l202 -163l-399 -310z" />
<glyph unicode="&#xca;" horiz-adv-x="1126" d="M131 0l244 1544h878l-53 -340h-477l-41 -258h453l-54 -340h-452l-43 -266h477l-53 -340h-879zM397 1794l500 336l399 -336l-186 -172l-258 227l-332 -227z" />
<glyph unicode="&#xcb;" horiz-adv-x="1126" d="M131 0l244 1544h878l-53 -340h-477l-41 -258h453l-54 -340h-452l-43 -266h477l-53 -340h-879zM395 1870q12 84 81 142.5t153 58.5q82 0 132 -58.5t38 -142.5q-14 -84 -82 -142.5t-152 -58.5t-134 58.5t-36 142.5zM920 1870q12 84 80.5 142.5t152.5 58.5q82 0 132 -58.5 t38 -142.5q-14 -84 -81.5 -142.5t-151.5 -58.5t-134 58.5t-36 142.5z" />
<glyph unicode="&#xcc;" horiz-adv-x="663" d="M131 0l244 1544h401l-244 -1544h-401zM352 1948l252 163l234 -352l-185 -121z" />
<glyph unicode="&#xcd;" horiz-adv-x="663" d="M131 0l244 1544h401l-244 -1544h-401zM383 1759l344 352l203 -163l-400 -310z" />
<glyph unicode="&#xce;" horiz-adv-x="663" d="M131 0l244 1544h401l-244 -1544h-401zM197 1794l499 336l400 -336l-187 -172l-258 227l-332 -227z" />
<glyph unicode="&#xcf;" horiz-adv-x="663" d="M131 0l244 1544h401l-244 -1544h-401zM164 1870q12 84 80.5 142.5t152.5 58.5q82 0 132.5 -58.5t37.5 -142.5q-14 -84 -81.5 -142.5t-151.5 -58.5t-134 58.5t-36 142.5zM688 1870q12 84 81 142.5t153 58.5q82 0 132 -58.5t38 -142.5q-14 -84 -82 -142.5t-152 -58.5 t-134 58.5t-36 142.5z" />
<glyph unicode="&#xd0;" horiz-adv-x="1540" d="M59 633l50 315h172l94 596h520q365 0 565.5 -217t147.5 -555q-53 -336 -325.5 -554t-627.5 -218h-524l100 633h-172zM586 340h90q193 0 336 108.5t178 323.5q31 203 -71.5 317.5t-301.5 114.5h-94l-41 -256h225l-49 -315h-225z" />
<glyph unicode="&#xd1;" horiz-adv-x="1804" d="M131 0l244 1544h401l586 -944h4l150 944h401l-244 -1544h-401l-586 946h-4l-150 -946h-401zM764 1694l2 22q16 104 74 182q86 115 200 115q55 0 169 -34.5t153 -34.5q35 0 54.5 17t39.5 56h174q-31 -127 -113.5 -225t-203.5 -98q-53 0 -152.5 37.5t-146.5 37.5 q-23 0 -40.5 -13t-22.5 -23l-19 -39h-168z" />
<glyph unicode="&#xd2;" horiz-adv-x="1816" d="M180 801q35 227 185.5 411.5t360.5 283.5t433 99q166 0 311.5 -59t248 -161.5t149.5 -253t20 -320.5q-59 -375 -337.5 -613.5t-651.5 -238.5t-575.5 239.5t-143.5 612.5zM598 799q-33 -197 73.5 -329t289 -132t330 132t179.5 329q25 162 -84.5 284.5t-287.5 122.5 t-326.5 -122.5t-173.5 -284.5zM920 1948l251 163l234 -352l-184 -121z" />
<glyph unicode="&#xd3;" horiz-adv-x="1816" d="M180 801q35 227 185.5 411.5t360.5 283.5t433 99q166 0 311.5 -59t248 -161.5t149.5 -253t20 -320.5q-59 -375 -337.5 -613.5t-651.5 -238.5t-575.5 239.5t-143.5 612.5zM598 799q-33 -197 73.5 -329t289 -132t330 132t179.5 329q25 162 -84.5 284.5t-287.5 122.5 t-326.5 -122.5t-173.5 -284.5zM971 1759l344 352l203 -163l-400 -310z" />
<glyph unicode="&#xd4;" horiz-adv-x="1816" d="M180 801q35 227 185.5 411.5t360.5 283.5t433 99q166 0 311.5 -59t248 -161.5t149.5 -253t20 -320.5q-59 -375 -337.5 -613.5t-651.5 -238.5t-575.5 239.5t-143.5 612.5zM598 799q-33 -197 73.5 -329t289 -132t330 132t179.5 329q25 162 -84.5 284.5t-287.5 122.5 t-326.5 -122.5t-173.5 -284.5zM743 1794l500 336l399 -336l-186 -172l-258 227l-332 -227z" />
<glyph unicode="&#xd5;" horiz-adv-x="1816" d="M180 801q35 227 185.5 411.5t360.5 283.5t433 99q166 0 311.5 -59t248 -161.5t149.5 -253t20 -320.5q-59 -375 -337.5 -613.5t-651.5 -238.5t-575.5 239.5t-143.5 612.5zM598 799q-33 -197 73.5 -329t289 -132t330 132t179.5 329q25 162 -84.5 284.5t-287.5 122.5 t-326.5 -122.5t-173.5 -284.5zM770 1694l2 22q16 104 74 182q86 115 201 115q55 0 168.5 -34.5t152.5 -34.5q35 0 54.5 17t39.5 56h174q-31 -127 -113.5 -225t-203.5 -98q-53 0 -152.5 37.5t-146.5 37.5q-23 0 -40 -13t-23 -23l-19 -39h-168z" />
<glyph unicode="&#xd6;" horiz-adv-x="1816" d="M180 801q35 227 185.5 411.5t360.5 283.5t433 99q166 0 311.5 -59t248 -161.5t149.5 -253t20 -320.5q-59 -375 -337.5 -613.5t-651.5 -238.5t-575.5 239.5t-143.5 612.5zM598 799q-33 -197 73.5 -329t289 -132t330 132t179.5 329q25 162 -84.5 284.5t-287.5 122.5 t-326.5 -122.5t-173.5 -284.5zM741 1870q12 84 81 142.5t153 58.5q82 0 132 -58.5t38 -142.5q-14 -84 -82 -142.5t-152 -58.5t-134 58.5t-36 142.5zM1266 1870q12 84 80.5 142.5t152.5 58.5q82 0 132 -58.5t38 -142.5q-14 -84 -81.5 -142.5t-151.5 -58.5t-134 58.5 t-36 142.5z" />
<glyph unicode="&#xd8;" horiz-adv-x="1816" d="M55 82l213 182q-135 227 -88 537q35 227 185.5 411.5t360.5 283.5t433 99q283 0 488 -159l225 190l133 -164l-213 -182q139 -205 96 -479q-59 -375 -337.5 -613.5t-651.5 -238.5q-297 0 -489 157l-220 -188zM598 799q-23 -133 25 -236l686 584q-92 59 -211 59 q-178 0 -326.5 -122.5t-173.5 -284.5zM754 397q88 -59 207 -59q182 0 329.5 132t179.5 329q16 102 -24 186z" />
<glyph unicode="&#xd9;" horiz-adv-x="1593" d="M206 474q5 77 23 202l138 868h401l-127 -813q-12 -74 -16 -123t1 -110.5t26.5 -98.5t70.5 -62.5t123 -25.5t131 25.5t91 62.5t58.5 99.5t36 110.5t23.5 122l127 813h401l-137 -868q-29 -188 -78 -316.5t-170 -228.5q-203 -172 -538 -172q-338 0 -486 172 q-61 70 -82.5 168t-16.5 175zM807 1948l252 163l233 -352l-184 -121z" />
<glyph unicode="&#xda;" horiz-adv-x="1593" d="M206 474q5 77 23 202l138 868h401l-127 -813q-12 -74 -16 -123t1 -110.5t26.5 -98.5t70.5 -62.5t123 -25.5t131 25.5t91 62.5t58.5 99.5t36 110.5t23.5 122l127 813h401l-137 -868q-29 -188 -78 -316.5t-170 -228.5q-203 -172 -538 -172q-338 0 -486 172 q-61 70 -82.5 168t-16.5 175zM858 1759l344 352l203 -163l-399 -310z" />
<glyph unicode="&#xdb;" horiz-adv-x="1593" d="M206 474q5 77 23 202l138 868h401l-127 -813q-12 -74 -16 -123t1 -110.5t26.5 -98.5t70.5 -62.5t123 -25.5t131 25.5t91 62.5t58.5 99.5t36 110.5t23.5 122l127 813h401l-137 -868q-29 -188 -78 -316.5t-170 -228.5q-203 -172 -538 -172q-338 0 -486 172 q-61 70 -82.5 168t-16.5 175zM631 1794l499 336l400 -336l-187 -172l-258 227l-331 -227z" />
<glyph unicode="&#xdc;" horiz-adv-x="1593" d="M206 474q5 77 23 202l138 868h401l-127 -813q-12 -74 -16 -123t1 -110.5t26.5 -98.5t70.5 -62.5t123 -25.5t131 25.5t91 62.5t58.5 99.5t36 110.5t23.5 122l127 813h401l-137 -868q-29 -188 -78 -316.5t-170 -228.5q-203 -172 -538 -172q-338 0 -486 172 q-61 70 -82.5 168t-16.5 175zM629 1870q12 84 80.5 142.5t152.5 58.5q82 0 132 -58.5t38 -142.5q-14 -84 -81.5 -142.5t-151.5 -58.5t-134 58.5t-36 142.5zM1153 1870q12 84 81 142.5t152 58.5q82 0 132.5 -58.5t37.5 -142.5q-14 -84 -81.5 -142.5t-151.5 -58.5t-134 58.5 t-36 142.5z" />
<glyph unicode="&#xdd;" horiz-adv-x="1462" d="M205 1544h481l223 -420l355 420h481l-696 -803l-117 -741h-402l117 741zM834 1759l344 352l202 -163l-399 -310z" />
<glyph unicode="&#xde;" horiz-adv-x="1353" d="M131 0l244 1544h401l-39 -246h213q260 0 391.5 -125.5t90.5 -381.5q-82 -524 -629 -525h-228l-43 -266h-401zM627 590h67q57 0 87 1t77 11t72.5 28.5t49.5 55.5t32 92q8 57 -2.5 95t-28.5 58.5t-61 30t-75 11.5t-91 2h-68z" />
<glyph unicode="&#xdf;" horiz-adv-x="1333" d="M113 608l47 297h106l47 301q43 266 189 379q166 135 426 135q219 0 346 -118.5t92 -333.5q-16 -104 -72.5 -178t-160.5 -144q147 -63 205.5 -161.5t29.5 -274.5q-18 -115 -77.5 -228.5t-149.5 -181.5q-176 -135 -463 -135h-80l51 318q119 -4 208 63.5t108 183.5 q18 115 -52.5 186.5t-185.5 63.5l47 297q92 -4 154.5 37t75.5 129q12 72 -24 114t-108 42q-53 0 -90 -18.5t-56 -57.5t-28.5 -70.5t-17.5 -87.5l-184 -1165h-373l96 608h-106z" />
<glyph unicode="&#xe0;" horiz-adv-x="1396" d="M131 526.5q37 231.5 211 395t403 163.5q209 0 304 -137l16 103h373l-166 -1051h-373l19 117h-5q-59 -74 -151 -113t-191 -39q-229 0 -353 165t-87 396.5zM516 524q-16 -102 37 -168.5t163.5 -66.5t186.5 66.5t92 168.5q16 100 -38 169t-164.5 69t-185.5 -69t-91 -169z M680 1516l254 163l233 -352l-186 -121z" />
<glyph unicode="&#xe1;" horiz-adv-x="1396" d="M131 526.5q37 231.5 211 395t403 163.5q209 0 304 -137l16 103h373l-166 -1051h-373l19 117h-5q-59 -74 -151 -113t-191 -39q-229 0 -353 165t-87 396.5zM516 524q-16 -102 37 -168.5t163.5 -66.5t186.5 66.5t92 168.5q16 100 -38 169t-164.5 69t-185.5 -69t-91 -169z M692 1327l344 352l201 -163l-399 -310z" />
<glyph unicode="&#xe2;" horiz-adv-x="1396" d="M131 526.5q37 231.5 211 395t403 163.5q209 0 304 -137l16 103h373l-166 -1051h-373l19 117h-5q-59 -74 -151 -113t-191 -39q-229 0 -353 165t-87 396.5zM463 1362l500 336l399 -336l-184 -172l-258 227l-332 -227zM516 524q-16 -102 37 -168.5t163.5 -66.5t186.5 66.5 t92 168.5q16 100 -38 169t-164.5 69t-185.5 -69t-91 -169z" />
<glyph unicode="&#xe3;" horiz-adv-x="1396" d="M131 526.5q37 231.5 211 395t403 163.5q209 0 304 -137l16 103h373l-166 -1051h-373l19 117h-5q-59 -74 -151 -113t-191 -39q-229 0 -353 165t-87 396.5zM494 1262v22q16 104 73 182q86 115 201 115q55 0 170 -35t154 -35q35 0 53 17.5t41 56.5h174q-33 -129 -115 -226 t-203 -97q-53 0 -153.5 37.5t-147.5 37.5q-8 0 -16 -2t-14 -4t-13 -8l-8 -8q-2 -2 -8 -12.5t-7 -12.5l-7 -14q-6 -12 -6 -14h-168zM516 524q-16 -102 37 -168.5t163.5 -66.5t186.5 66.5t92 168.5q16 100 -38 169t-164.5 69t-185.5 -69t-91 -169z" />
<glyph unicode="&#xe4;" horiz-adv-x="1396" d="M131 526.5q37 231.5 211 395t403 163.5q209 0 304 -137l16 103h373l-166 -1051h-373l19 117h-5q-59 -74 -151 -113t-191 -39q-229 0 -353 165t-87 396.5zM460.5 1438q14.5 84 83 142t152.5 58t133.5 -59t34.5 -141q-14 -84 -80.5 -142.5t-150.5 -58.5t-135.5 58.5 t-37 142.5zM516 524q-16 -102 37 -168.5t163.5 -66.5t186.5 66.5t92 168.5q16 100 -38 169t-164.5 69t-185.5 -69t-91 -169zM985 1438q14 84 83 142t153 58t133 -59t35 -141q-14 -84 -81 -142.5t-151 -58.5t-135 58.5t-37 142.5z" />
<glyph unicode="&#xe5;" horiz-adv-x="1396" d="M131 526.5q37 231.5 211 395t403 163.5q209 0 304 -137l16 103h373l-166 -1051h-373l19 117h-5q-59 -74 -151 -113t-191 -39q-229 0 -353 165t-87 396.5zM516 524q-16 -102 37 -168.5t163.5 -66.5t186.5 66.5t92 168.5q16 100 -38 169t-164.5 69t-185.5 -69t-91 -169z M612 1432q18 123 117.5 180t231.5 57q133 0 217 -56.5t63 -178.5q-20 -121 -119.5 -178.5t-228.5 -57.5q-84 0 -148.5 20.5t-105.5 75t-27 138.5zM807 1434q-6 -45 25.5 -66.5t81 -21.5t88 21.5t45 66.5t-25.5 66.5t-79 21.5q-121 0 -135 -88z" />
<glyph unicode="&#xe6;" horiz-adv-x="1925" d="M90 303q29 176 168 263t322 87q145 0 266 -53l6 31q16 100 -48.5 142t-172.5 42q-115 0 -301 -57l43 278q188 49 313 49q129 0 230.5 -44t136.5 -142q74 90 189.5 138t234.5 48q272 0 399 -156.5t84 -426.5l-6 -39h-785q-37 -233 197 -234q121 0 193 97h358 q-68 -174 -242 -273q-156 -88 -350 -88q-139 0 -248.5 49t-140.5 158q-90 -96 -213 -151.5t-246 -55.5q-106 0 -197.5 35t-148.5 114.5t-41 188.5zM459 334q-10 -57 38 -85t111 -28q61 0 128 27.5t77 83.5q6 43 -26.5 70.5t-71.5 35.5t-82 8q-59 0 -112.5 -28.5t-61.5 -83.5 zM1214 678h433q-2 74 -54.5 120t-130.5 46q-84 0 -150.5 -43t-97.5 -123z" />
<glyph unicode="&#xe7;" horiz-adv-x="989" d="M129 514q39 250 233.5 410.5t444.5 160.5q135 0 235 -61l-49 -315q-88 74 -180 73q-109 0 -195 -73.5t-102 -182.5q-18 -113 44.5 -185.5t176.5 -72.5q109 0 197 72l-49 -315q-127 -59 -273 -60q-238 0 -379 156.5t-104 392.5zM199 -385l317 324l182 -132l-356 -292z" />
<glyph unicode="&#xe8;" horiz-adv-x="1249" d="M129 524q41 260 225.5 410.5t444.5 150.5q272 0 399 -156.5t84 -426.5l-6 -39h-784q-37 -233 196 -234q121 0 193 97h358q-68 -174 -242 -273q-156 -88 -350 -88q-270 0 -414.5 147.5t-103.5 411.5zM530 678h433q-2 74 -54.5 120t-130.5 46q-84 0 -150.5 -43t-97.5 -123z M555 1516l254 163l233 -352l-186 -121z" />
<glyph unicode="&#xe9;" horiz-adv-x="1249" d="M129 524q41 260 225.5 410.5t444.5 150.5q272 0 399 -156.5t84 -426.5l-6 -39h-784q-37 -233 196 -234q121 0 193 97h358q-68 -174 -242 -273q-156 -88 -350 -88q-270 0 -414.5 147.5t-103.5 411.5zM530 678h433q-2 74 -54.5 120t-130.5 46q-84 0 -150.5 -43t-97.5 -123z M629 1327l344 352l201 -163l-400 -310z" />
<glyph unicode="&#xea;" horiz-adv-x="1249" d="M129 524q41 260 225.5 410.5t444.5 150.5q272 0 399 -156.5t84 -426.5l-6 -39h-784q-37 -233 196 -234q121 0 193 97h358q-68 -174 -242 -273q-156 -88 -350 -88q-270 0 -414.5 147.5t-103.5 411.5zM389 1362l500 336l399 -336l-184 -172l-258 227l-332 -227zM530 678 h433q-2 74 -54.5 120t-130.5 46q-84 0 -150.5 -43t-97.5 -123z" />
<glyph unicode="&#xeb;" horiz-adv-x="1249" d="M129 524q41 260 225.5 410.5t444.5 150.5q272 0 399 -156.5t84 -426.5l-6 -39h-784q-37 -233 196 -234q121 0 193 97h358q-68 -174 -242 -273q-156 -88 -350 -88q-270 0 -414.5 147.5t-103.5 411.5zM387 1438q14 84 83 142t153 58t133 -59t35 -141q-14 -84 -81 -142.5 t-151 -58.5t-135 58.5t-37 142.5zM530 678h433q-2 74 -54.5 120t-130.5 46q-84 0 -150.5 -43t-97.5 -123zM911.5 1438q14.5 84 83 142t152.5 58t133 -59t35 -141q-14 -84 -81 -142.5t-151 -58.5t-135 58.5t-36.5 142.5z" />
<glyph unicode="&#xec;" horiz-adv-x="618" d="M123 0l166 1051h373l-166 -1051h-373zM260 1516l254 163l234 -352l-187 -121z" />
<glyph unicode="&#xed;" horiz-adv-x="618" d="M123 0l166 1051h373l-166 -1051h-373zM293 1327l344 352l201 -163l-400 -310z" />
<glyph unicode="&#xee;" horiz-adv-x="618" d="M74 1362l499 336l400 -336l-185 -172l-258 227l-331 -227zM123 0l166 1051h373l-166 -1051h-373z" />
<glyph unicode="&#xef;" horiz-adv-x="618" d="M71.5 1438q14.5 84 83 142t152.5 58t133 -59t35 -141q-14 -84 -80.5 -142.5t-150.5 -58.5t-135.5 58.5t-37 142.5zM123 0l166 1051h373l-166 -1051h-373zM596 1438q14 84 83 142t152.5 58t133 -59t34.5 -141q-14 -84 -80.5 -142.5t-150.5 -58.5t-135 58.5t-37 142.5z" />
<glyph unicode="&#xf0;" horiz-adv-x="1355" d="M127 522q39 242 232.5 390.5t412.5 148.5q53 0 119 -12q-86 133 -195 229l-288 -141l-113 145l242 119q-100 72 -211 123l249 213q207 -102 297 -170l283 137l109 -150l-230 -112l74 -74q31 -31 71 -74t66.5 -78.5t57 -82t49 -88t36 -95t23.5 -104.5t6 -112.5t-10 -125.5 q-51 -317 -265 -480t-483 -163q-102 0 -201.5 33t-184.5 97.5t-127 176t-19 250.5zM522 524q-16 -102 37 -168.5t164 -66.5t186.5 66.5t91.5 168.5q16 100 -38 169t-164.5 69t-185.5 -69t-91 -169z" />
<glyph unicode="&#xf1;" horiz-adv-x="1353" d="M123 0l166 1051h373l-21 -136h4q78 92 164 131t199 39q203 0 280.5 -115.5t44.5 -320.5l-102 -649h-373l82 512q0 6 5 34.5t6 41t3 40t0 42t-6 36t-15 34t-25.5 25.5t-38 18t-54.5 5q-195 0 -233 -243l-86 -545h-373zM471 1262v22q16 104 74 182q86 115 200 115 q55 0 170 -35t154 -35q35 0 53.5 17.5t40.5 56.5h174q-33 -129 -114.5 -226t-202.5 -97q-53 0 -153.5 37.5t-147.5 37.5q-8 0 -16.5 -2t-14.5 -4t-12 -8l-8 -8q-2 -2 -8.5 -12.5t-7.5 -12.5l-7 -14q-6 -12 -6 -14h-168z" />
<glyph unicode="&#xf2;" horiz-adv-x="1355" d="M129 524q39 258 247 409.5t474 151.5t426 -151.5t119 -409.5q-29 -172 -137.5 -301t-261 -193.5t-324.5 -64.5q-264 0 -424 150.5t-119 408.5zM522 524q-16 -102 37 -168.5t164 -66.5t186.5 66.5t91.5 168.5q16 100 -38 169t-164.5 69t-185.5 -69t-91 -169zM608 1516 l254 163l234 -352l-187 -121z" />
<glyph unicode="&#xf3;" horiz-adv-x="1355" d="M129 524q39 258 247 409.5t474 151.5t426 -151.5t119 -409.5q-29 -172 -137.5 -301t-261 -193.5t-324.5 -64.5q-264 0 -424 150.5t-119 408.5zM522 524q-16 -102 37 -168.5t164 -66.5t186.5 66.5t91.5 168.5q16 100 -38 169t-164.5 69t-185.5 -69t-91 -169zM682 1327 l344 352l201 -163l-400 -310z" />
<glyph unicode="&#xf4;" horiz-adv-x="1355" d="M129 524q39 258 247 409.5t474 151.5t426 -151.5t119 -409.5q-29 -172 -137.5 -301t-261 -193.5t-324.5 -64.5q-264 0 -424 150.5t-119 408.5zM442 1362l500 336l399 -336l-184 -172l-258 227l-332 -227zM522 524q-16 -102 37 -168.5t164 -66.5t186.5 66.5t91.5 168.5 q16 100 -38 169t-164.5 69t-185.5 -69t-91 -169z" />
<glyph unicode="&#xf5;" horiz-adv-x="1355" d="M129 524q39 258 247 409.5t474 151.5t426 -151.5t119 -409.5q-29 -172 -137.5 -301t-261 -193.5t-324.5 -64.5q-264 0 -424 150.5t-119 408.5zM473 1262v22q16 104 74 182q86 115 201 115q55 0 169.5 -35t153.5 -35q35 0 53.5 17.5t40.5 56.5h174q-33 -129 -114.5 -226 t-202.5 -97q-53 0 -153.5 37.5t-147.5 37.5q-8 0 -16.5 -2t-14.5 -4t-12 -8l-8 -8q-2 -2 -8.5 -12.5t-7.5 -12.5l-7 -14q-6 -12 -6 -14h-168zM522 524q-16 -102 37 -168.5t164 -66.5t186.5 66.5t91.5 168.5q16 100 -38 169t-164.5 69t-185.5 -69t-91 -169z" />
<glyph unicode="&#xf6;" horiz-adv-x="1355" d="M129 524q39 258 247 409.5t474 151.5t426 -151.5t119 -409.5q-29 -172 -137.5 -301t-261 -193.5t-324.5 -64.5q-264 0 -424 150.5t-119 408.5zM440.5 1438q14.5 84 83 142t152.5 58t133 -59t35 -141q-14 -84 -81 -142.5t-151 -58.5t-135 58.5t-36.5 142.5zM522 524 q-16 -102 37 -168.5t164 -66.5t186.5 66.5t91.5 168.5q16 100 -38 169t-164.5 69t-185.5 -69t-91 -169zM964.5 1438q14.5 84 83 142t152.5 58t133 -59t35 -141q-14 -84 -80.5 -142.5t-150.5 -58.5t-135.5 58.5t-37 142.5z" />
<glyph unicode="&#xf7;" d="M238 373l49 307h1048l-49 -307h-1048zM573 113q8 61 58.5 104t112 43t98.5 -43t26.5 -104.5t-60.5 -104.5t-111.5 -43t-97.5 43.5t-26 104.5zM705 940q8 61 58 104t111.5 43t98.5 -43t26.5 -104t-60.5 -104t-111.5 -43t-97 43t-25.5 104z" />
<glyph unicode="&#xf8;" horiz-adv-x="1355" d="M49 33l156 133q-111 147 -76 358q39 258 247 409.5t474 151.5q193 0 334 -81l168 143l123 -127l-158 -135q111 -150 78 -361q-29 -172 -137.5 -301t-261 -193.5t-324.5 -64.5q-195 0 -332 82l-168 -143zM522 438l363 310q-43 14 -86 14q-111 0 -185.5 -68.5t-91.5 -169.5 q-10 -47 0 -86zM637 303q37 -14 86 -14q111 0 186.5 66.5t91.5 168.5q6 49 -2 88z" />
<glyph unicode="&#xf9;" horiz-adv-x="1349" d="M182 418l101 633h372l-88 -562q-16 -113 13.5 -170t136.5 -57q109 0 158 58.5t65 168.5l88 562h373l-101 -633q-70 -453 -630 -453q-258 0 -391.5 104.5t-96.5 348.5zM596 1516l254 163l233 -352l-186 -121z" />
<glyph unicode="&#xfa;" horiz-adv-x="1349" d="M182 418l101 633h372l-88 -562q-16 -113 13.5 -170t136.5 -57q109 0 158 58.5t65 168.5l88 562h373l-101 -633q-70 -453 -630 -453q-258 0 -391.5 104.5t-96.5 348.5zM690 1327l344 352l201 -163l-399 -310z" />
<glyph unicode="&#xfb;" horiz-adv-x="1349" d="M182 418l101 633h372l-88 -562q-16 -113 13.5 -170t136.5 -57q109 0 158 58.5t65 168.5l88 562h373l-101 -633q-70 -453 -630 -453q-258 0 -391.5 104.5t-96.5 348.5zM440 1362l500 336l399 -336l-184 -172l-258 227l-332 -227z" />
<glyph unicode="&#xfc;" horiz-adv-x="1349" d="M182 418l101 633h372l-88 -562q-16 -113 13.5 -170t136.5 -57q109 0 158 58.5t65 168.5l88 562h373l-101 -633q-70 -453 -630 -453q-258 0 -391.5 104.5t-96.5 348.5zM438.5 1438q14.5 84 83 142t152.5 58t133 -59t35 -141q-14 -84 -81 -142.5t-151 -58.5t-135 58.5 t-36.5 142.5zM962.5 1438q14.5 84 83 142t152.5 58t133 -59t35 -141q-14 -84 -80.5 -142.5t-150.5 -58.5t-135.5 58.5t-37 142.5z" />
<glyph unicode="&#xfd;" horiz-adv-x="1339" d="M35 -524l465 667l-365 908h430l197 -539l358 539h424l-1091 -1575h-418zM705 1327l344 352l200 -163l-399 -310z" />
<glyph unicode="&#xfe;" horiz-adv-x="1396" d="M27 -524l352 2224h373l-121 -768h4q61 76 153.5 114.5t188.5 38.5q229 0 353 -165.5t87 -397t-211 -394.5t-403 -163q-207 0 -303 135l-101 -624h-372zM555 524q-16 -102 37 -168.5t163.5 -66.5t186.5 66.5t92 168.5q16 100 -38 169t-164.5 69t-185.5 -69t-91 -169z" />
<glyph unicode="&#xff;" horiz-adv-x="1339" d="M35 -524l465 667l-365 908h430l197 -539l358 539h424l-1091 -1575h-418zM463 1438q14 84 82.5 142t152.5 58t133.5 -59t34.5 -141q-14 -84 -80.5 -142.5t-150.5 -58.5t-135 58.5t-37 142.5zM987 1438q14 84 83 142t153 58t133 -59t35 -141q-14 -84 -81 -142.5t-151 -58.5 t-135 58.5t-37 142.5z" />
<glyph unicode="&#x131;" horiz-adv-x="618" d="M123 0l166 1051h373l-166 -1051h-373z" />
<glyph unicode="&#x152;" horiz-adv-x="2334" d="M176 772q53 332 329.5 577.5t606.5 245.5q299 0 461 -192l22 141h869l-54 -340h-468l-41 -258h436l-53 -340h-437l-43 -266h469l-53 -340h-868l26 170q-240 -221 -526 -221q-217 0 -385 113.5t-247 303t-44 406.5zM594 772q-29 -178 77.5 -306t285 -128t324.5 128 t175 306q29 180 -76.5 307t-285.5 127q-178 0 -325.5 -127t-174.5 -307z" />
<glyph unicode="&#x153;" horiz-adv-x="2093" d="M127 524q41 258 234.5 409.5t455.5 151.5q137 0 232.5 -34.5t173.5 -122.5q143 158 424 157q272 0 399 -156.5t84 -426.5l-6 -39h-785q-37 -233 197 -234q121 0 193 97h358q-68 -174 -242 -273q-156 -88 -350 -88q-295 0 -397 182q-104 -100 -210 -141t-245 -41 q-266 0 -411.5 148.5t-104.5 410.5zM520 524q-16 -98 43.5 -166.5t157.5 -68.5t180 68.5t98 166.5q16 96 -44 167t-158.5 71t-179.5 -71t-97 -167zM1372 678h432q-2 74 -54 120t-130 46q-84 0 -150.5 -43t-97.5 -123z" />
<glyph unicode="&#x178;" horiz-adv-x="1462" d="M205 1544h481l223 -420l355 420h481l-696 -803l-117 -741h-402l117 741zM584 1870q12 84 80.5 142.5t152.5 58.5q82 0 132 -58.5t38 -142.5q-14 -84 -81.5 -142.5t-151.5 -58.5t-134 58.5t-36 142.5zM1108 1870q12 84 80.5 142.5t152.5 58.5q82 0 132.5 -58.5 t37.5 -142.5q-14 -84 -81.5 -142.5t-151.5 -58.5t-134 58.5t-36 142.5z" />
<glyph unicode="&#x192;" d="M-68 -352l115 338q100 -18 141 -19q82 0 135.5 32t98.5 107q39 70 117 295l161 478h-176l49 155h181l75 221q72 207 177 304q147 141 352 141q166 0 256 -70l-111 -321q-74 61 -149 61q-51 0 -91 -39t-53.5 -69.5t-35.5 -98.5q-4 -10 -7 -16l-39 -113h226l-51 -155h-226 l-194 -572q-37 -111 -62.5 -176t-75 -151t-112.5 -154q-209 -221 -488 -197z" />
<glyph unicode="&#x2c6;" horiz-adv-x="1208" d="M369 1362l499 336l400 -336l-185 -172l-258 227l-331 -227z" />
<glyph unicode="&#x2da;" horiz-adv-x="935" d="M381 1432q18 123 117.5 180t230.5 57q133 0 217 -56.5t64 -178.5q-20 -121 -119.5 -178.5t-228.5 -57.5q-84 0 -148.5 20.5t-105.5 75t-27 138.5zM575 1434q-6 -45 26 -66.5t81 -21.5t88 21.5t45 66.5t-25.5 66.5t-78.5 21.5q-122 0 -136 -88z" />
<glyph unicode="&#x2dc;" horiz-adv-x="1124" d="M356 1262v22q16 104 74 182q86 115 201 115q55 0 169.5 -35t153.5 -35q35 0 53.5 17.5t41.5 56.5h174q-33 -129 -115 -226t-203 -97q-53 0 -153.5 37.5t-147.5 37.5q-8 0 -16 -2t-14.5 -4t-12.5 -8l-8 -8q-2 -2 -8 -12.5t-7 -12.5l-8 -14q-6 -12 -6 -14h-168z" />
<glyph unicode="&#x3a9;" horiz-adv-x="1779" d="M86 0l45 281h332v8q-109 102 -170.5 259t-30.5 353q47 301 297 516t594 215q178 0 315.5 -64.5t214 -169t107.5 -230.5t10 -255q-63 -381 -403 -624v-8h338l-45 -281h-695l33 211q322 176 393 629q35 215 -48 360.5t-265 145.5q-180 0 -316.5 -144.5t-173.5 -374.5 q-35 -225 22.5 -386.5t174.5 -229.5l-33 -211h-696z" />
<glyph unicode="&#x3c0;" horiz-adv-x="1521" d="M133 0q88 197 174 468t115 450q-164 0 -240 -21v229q115 84 441 84h1063l-76 -292h-164l-88 -558q-37 -229 -27 -360h-354q-31 68 12 342l92 576h-303q-39 -207 -124 -484.5t-167 -433.5h-354z" />
<glyph unicode="&#x2000;" horiz-adv-x="1024" />
<glyph unicode="&#x2001;" horiz-adv-x="2048" />
<glyph unicode="&#x2002;" horiz-adv-x="1024" />
<glyph unicode="&#x2003;" horiz-adv-x="2048" />
<glyph unicode="&#x2004;" horiz-adv-x="681" />
<glyph unicode="&#x2005;" horiz-adv-x="512" />
<glyph unicode="&#x2006;" horiz-adv-x="339" />
<glyph unicode="&#x2007;" />
<glyph unicode="&#x2008;" horiz-adv-x="702" />
<glyph unicode="&#x2009;" horiz-adv-x="204" />
<glyph unicode="&#x200a;" horiz-adv-x="20" />
<glyph unicode="&#x200b;" horiz-adv-x="0" />
<glyph unicode="&#x200c;" horiz-adv-x="0" />
<glyph unicode="&#x200d;" horiz-adv-x="0" />
<glyph unicode="&#x200e;" horiz-adv-x="681" />
<glyph unicode="&#x200f;" horiz-adv-x="681" />
<glyph unicode="&#x2010;" horiz-adv-x="802" d="M188 504l50 307h585l-49 -307h-586z" />
<glyph unicode="&#x2011;" horiz-adv-x="802" d="M188 504v307h635v-307h-635z" />
<glyph unicode="&#x2012;" d="M188 504v307h1237v-307h-1237z" />
<glyph unicode="&#x2013;" horiz-adv-x="1024" d="M80 504l49 307h1024l-49 -307h-1024z" />
<glyph unicode="&#x2014;" horiz-adv-x="2048" d="M346 504l49 307h1516l-49 -307h-1516z" />
<glyph unicode="&#x2015;" horiz-adv-x="4096" d="M188 504v307h3928v-307h-3928z" />
<glyph unicode="&#x2016;" horiz-adv-x="2035" d="M1514 -625v2499h280v-2499h-280zM496 -625v2499h280v-2499h-280z" />
<glyph unicode="&#x2018;" horiz-adv-x="761" d="M176 866l483 678h238l-373 -678h-348z" />
<glyph unicode="&#x2019;" horiz-adv-x="761" d="M246 866l372 678h349l-484 -678h-237z" />
<glyph unicode="&#x201a;" horiz-adv-x="692" d="M-6 -287l373 678h348l-484 -678h-237z" />
<glyph unicode="&#x201c;" horiz-adv-x="1286" d="M176 866l483 678h238l-373 -678h-348zM700 866l484 678h237l-372 -678h-349z" />
<glyph unicode="&#x201d;" horiz-adv-x="1286" d="M246 866l372 678h349l-484 -678h-237zM770 866l373 678h348l-483 -678h-238z" />
<glyph unicode="&#x201e;" horiz-adv-x="1216" d="M-6 -287l373 678h348l-484 -678h-237zM518 -287l373 678h348l-483 -678h-238z" />
<glyph unicode="&#x2020;" d="M303 829l47 295h361l65 420h340l-65 -420h362l-47 -295h-362l-191 -1198h-340l191 1198h-361z" />
<glyph unicode="&#x2021;" d="M217 285l47 295h363l45 290h-363l47 295h363l59 379h340l-59 -379h360l-47 -295h-360l-45 -290h360l-47 -295h-360l-103 -652h-340l103 652h-363z" />
<glyph unicode="&#x2022;" d="M440 772q25 162 155 274.5t294 112.5t256 -112.5t67 -274.5q-27 -160 -154.5 -272.5t-291.5 -112.5t-258.5 112.5t-67.5 272.5z" />
<glyph unicode="&#x2024;" horiz-adv-x="702" d="M143 199q16 100 97.5 169.5t181.5 69.5t158.5 -69.5t42.5 -169.5q-16 -98 -96.5 -169t-180.5 -71t-159.5 71t-43.5 169z" />
<glyph unicode="&#x2025;" d="M845 199q16 100 97.5 169.5t181.5 69.5t158.5 -69.5t42.5 -169.5q-16 -98 -96.5 -169t-180.5 -71t-159.5 71t-43.5 169zM143 199q16 100 97.5 169.5t181.5 69.5t158.5 -69.5t42.5 -169.5q-16 -98 -96.5 -169t-180.5 -71t-159.5 71t-43.5 169z" />
<glyph unicode="&#x2026;" horiz-adv-x="2048" d="M133 199q16 100 97 169.5t181.5 69.5t159 -69.5t41.5 -169.5q-16 -98 -96 -169t-180 -71t-159.5 71t-43.5 169zM815 199q16 100 97 169.5t181.5 69.5t159 -69.5t41.5 -169.5q-16 -98 -96 -169t-180 -71t-159.5 71t-43.5 169zM1497 199q16 100 97 169.5t181.5 69.5 t159 -69.5t41.5 -169.5q-16 -98 -96 -169t-180.5 -71t-159.5 71t-43 169z" />
<glyph unicode="&#x202a;" horiz-adv-x="0" />
<glyph unicode="&#x202f;" horiz-adv-x="425" />
<glyph unicode="&#x2030;" horiz-adv-x="2990" d="M227 1190q29 176 165 275.5t316.5 99.5t286 -99.5t76.5 -275.5q-29 -180 -163 -280.5t-318 -100.5t-288 100.5t-75 280.5zM449 0l1140 1544h201l-1141 -1544h-200zM475 1186q-12 -72 31 -122t114.5 -50t131 50t71.5 122q10 72 -32.5 123t-114.5 51t-131.5 -51t-69.5 -123 zM1171 360q29 176 165.5 275.5t316.5 99.5t285.5 -99t76.5 -276q-29 -180 -164 -280t-319 -100t-287 100t-74 280zM1419 356q-12 -72 31 -122t114.5 -50t131 50.5t71.5 121.5q10 72 -32.5 123t-114.5 51t-131.5 -51t-69.5 -123zM2165 360q29 176 165 275.5t316 99.5 t285.5 -99t77.5 -276q-29 -180 -164 -280t-319.5 -100t-287 100t-73.5 280zM2413 356q-12 -72 30.5 -122t114.5 -50t131 50.5t72 121.5q10 72 -33 123t-114.5 51t-131 -51t-69.5 -123z" />
<glyph unicode="&#x2032;" horiz-adv-x="512" d="M274 866l52 678h348l-162 -678h-238z" />
<glyph unicode="&#x2033;" horiz-adv-x="1024" d="M786 866l52 678h348l-162 -678h-238zM274 866l52 678h348l-162 -678h-238z" />
<glyph unicode="&#x2034;" horiz-adv-x="1536" d="M1298 866l52 678h348l-162 -678h-238zM786 866l52 678h348l-162 -678h-238zM274 866l52 678h348l-162 -678h-238z" />
<glyph unicode="&#x2035;" horiz-adv-x="823" d="M393 1516l254 163l234 -352l-187 -121z" />
<glyph unicode="&#x2036;" horiz-adv-x="1646" d="M1216 1516l254 163l234 -352l-187 -121zM393 1516l254 163l234 -352l-187 -121z" />
<glyph unicode="&#x2037;" horiz-adv-x="2469" d="M2040 1516l254 163l234 -352l-187 -121zM1216 1516l254 163l234 -352l-187 -121zM393 1516l254 163l234 -352l-187 -121z" />
<glyph unicode="&#x2039;" horiz-adv-x="724" d="M158 655l432 504l182 -141l-315 -363l207 -356l-234 -147z" />
<glyph unicode="&#x203a;" horiz-adv-x="724" d="M156 299l321 356l-201 363l228 141l272 -504l-432 -503z" />
<glyph unicode="&#x203c;" horiz-adv-x="1572" d="M970 199q16 100 97 169.5t181.5 69.5t159 -69.5t42.5 -169.5q-16 -98 -96.5 -169t-180.5 -71t-159.5 71t-43.5 169zM1071 524l159 1020h387l-159 -1020h-387zM184 199q16 100 97 169.5t181.5 69.5t159 -69.5t42.5 -169.5q-16 -98 -96.5 -169t-180.5 -71t-159.5 71 t-43.5 169zM285 524l159 1020h387l-159 -1020h-387z" />
<glyph unicode="&#x203e;" horiz-adv-x="702" d="M-443 123l35 219h926l-35 -219h-926z" />
<glyph unicode="&#x2044;" horiz-adv-x="397" d="M-350 0l1141 1544h200l-1141 -1544h-200z" />
<glyph unicode="&#x2047;" horiz-adv-x="2437" d="M1424 1104q39 225 231 358q180 123 408 123q209 0 338 -127q68 -68 101.5 -162t16.5 -192q-27 -166 -145.5 -277.5t-294.5 -164.5l-22 -146h-375l63 397q45 -10 84 -10q98 0 189.5 54.5t107.5 148.5q10 63 -26.5 108.5t-100.5 45.5q-68 0 -112.5 -43t-55.5 -113h-407z M1586 199q16 100 97 169.5t181 69.5t158.5 -69.5t42.5 -169.5q-16 -98 -96 -169t-180.5 -71t-159.5 71t-43 169zM205 1104q39 225 231 358q180 123 408 123q209 0 338 -127q68 -68 101.5 -162t16.5 -192q-27 -166 -145.5 -277.5t-294.5 -164.5l-22 -146h-375l63 397 q45 -10 84 -10q98 0 189.5 54.5t107.5 148.5q10 63 -26.5 108.5t-100.5 45.5q-68 0 -112.5 -43t-55.5 -113h-407zM367 199q16 100 97 169.5t181 69.5t158.5 -69.5t42.5 -169.5q-16 -98 -96 -169t-180.5 -71t-159.5 71t-43 169z" />
<glyph unicode="&#x2048;" horiz-adv-x="2004" d="M1403 199q16 100 97 169.5t181.5 69.5t159 -69.5t42.5 -169.5q-16 -98 -96.5 -169t-180.5 -71t-159.5 71t-43.5 169zM1504 524l159 1020h387l-159 -1020h-387zM205 1104q39 225 231 358q180 123 408 123q209 0 338 -127q68 -68 101.5 -162t16.5 -192 q-27 -166 -145.5 -277.5t-294.5 -164.5l-22 -146h-375l63 397q45 -10 84 -10q98 0 189.5 54.5t107.5 148.5q10 63 -26.5 108.5t-100.5 45.5q-68 0 -112.5 -43t-55.5 -113h-407zM367 199q16 100 97 169.5t181 69.5t158.5 -69.5t42.5 -169.5q-16 -98 -96 -169t-180.5 -71 t-159.5 71t-43 169z" />
<glyph unicode="&#x2049;" horiz-adv-x="2004" d="M991 1104q39 225 231 358q180 123 408 123q209 0 338 -127q68 -68 101.5 -162t16.5 -192q-27 -166 -145.5 -277.5t-294.5 -164.5l-22 -146h-375l63 397q45 -10 84 -10q98 0 189.5 54.5t107.5 148.5q10 63 -26.5 108.5t-100.5 45.5q-68 0 -112.5 -43t-55.5 -113h-407z M1153 199q16 100 97 169.5t181 69.5t158.5 -69.5t42.5 -169.5q-16 -98 -96 -169t-180.5 -71t-159.5 71t-43 169zM184 199q16 100 97 169.5t181.5 69.5t159 -69.5t42.5 -169.5q-16 -98 -96.5 -169t-180.5 -71t-159.5 71t-43.5 169zM285 524l159 1020h387l-159 -1020h-387z " />
<glyph unicode="&#x2057;" horiz-adv-x="2048" d="M1810 866l52 678h348l-162 -678h-238zM1298 866l52 678h348l-162 -678h-238zM786 866l52 678h348l-162 -678h-238zM274 866l52 678h348l-162 -678h-238z" />
<glyph unicode="&#x205f;" horiz-adv-x="532" />
<glyph unicode="&#x2060;" horiz-adv-x="0" />
<glyph unicode="&#x20a8;" horiz-adv-x="2443" d="M1461 86l176 260q53 -43 133 -74.5t145 -31.5q43 0 83 20.5t46 58.5q4 23 -5 40.5t-34.5 28.5t-47 17.5t-63.5 15.5t-65 15q-102 29 -156 89q-39 44 -40 123q0 30 6 65q20 123 103 210t190.5 124.5t228.5 37.5q199 0 336 -67l-164 -238q-86 51 -192 51q-41 0 -81 -17 t-46 -54q-2 -14 2 -26.5t15 -22t21.5 -15.5t29 -11t29.5 -7t30.5 -5t25.5 -5q261 -54 261 -256q0 -27 -5 -56q-31 -193 -193.5 -292t-365.5 -99q-225 0 -403 121zM131 0l244 1544h600q242 0 371 -119q100 -92 100 -256q0 -47 -8 -100q-27 -166 -135.5 -286.5t-272.5 -149.5 l385 -633h-500l-284 594h-4l-95 -594h-401zM668 852h39q279 0 309 192q4 22 4 42q0 33 -11 59q-17 41 -58.5 59.5t-83.5 25.5t-99 7h-39z" />
<glyph unicode="&#x20ac;" d="M117 489l110 209h97q0 14 8 68q8 49 12 59h-174l111 209h114q199 569 762 570q129 0 227.5 -28t141.5 -60l-51 -322q-88 104 -308 104q-293 0 -387 -264h586l-111 -209h-534q-2 -8 -6 -28.5t-6 -28.5q-6 -37 -7 -70h484l-111 -209h-375q10 -248 301 -247q215 0 338 100 l-49 -322q-139 -80 -397 -79q-573 0 -582 548h-194z" />
<glyph unicode="&#x2122;" horiz-adv-x="1925" d="M303 1384l25 160h702l-24 -160h-252l-107 -667h-198l106 667h-252zM999 717l131 827h291l111 -489l262 489h291l-131 -827h-180l106 667h-4l-346 -667h-107l-133 667h-4l-106 -667h-181z" />
<glyph unicode="&#x2202;" horiz-adv-x="1447" d="M162 502q43 268 222 437t413 169q133 0 217 -61.5t112 -124.5h2q6 16 13 65q33 205 -54.5 357.5t-271.5 152.5q-178 0 -346 -108l-59 253q217 139 499 140q303 0 469 -236.5t101 -648.5q-68 -430 -304.5 -690t-566.5 -260q-131 0 -228 53t-146.5 137t-67.5 178.5 t-4 186.5zM516 492q-16 -109 32 -184t142 -75h2q115 0 215.5 129.5t145.5 284.5q-8 61 -67.5 122.5t-156.5 61.5q-113 0 -201.5 -100t-111.5 -239z" />
<glyph unicode="&#x2206;" horiz-adv-x="1642" d="M57 0l31 193l782 1447h435l307 -1443l-31 -197h-1524zM483 281h746l-146 622q-6 49 -31.5 193.5t-31.5 197.5h-8q-18 -41 -83 -173t-91 -187z" />
<glyph unicode="&#x220f;" horiz-adv-x="2050" d="M307 1290v316h1690v-316h-248v-1511h-358v1511h-478v-1511h-356v1511h-250z" />
<glyph unicode="&#x2211;" horiz-adv-x="1642" d="M307 -6l572 696l-547 674v242h1231v-301h-742v-9l465 -553l-518 -637v-8h838v-319h-1299v215z" />
<glyph unicode="&#x221a;" horiz-adv-x="1734" d="M326 778l448 185l244 -705q10 -39 28.5 -108.5t24.5 -96.5l4 -2q4 16 11.5 59.5t14.5 84.5t15 79l408 1653h252l-566 -2251h-282l-365 988l-180 -72z" />
<glyph unicode="&#x221e;" horiz-adv-x="2021" d="M279 649q0 184 115.5 301t291.5 117q127 0 227.5 -64.5t196.5 -189.5q109 123 164 166q119 90 260 88q162 0 270.5 -111.5t108.5 -291.5v-2q0 -193 -117 -308.5t-274 -115.5q-109 0 -211.5 57t-212.5 207q-102 -129 -201.5 -196.5t-232.5 -67.5q-156 0 -270.5 115.5 t-114.5 295.5zM471 647q0 -92 62.5 -157.5t152.5 -65.5h4q57 0 117.5 37t97.5 74.5t92 105.5q-45 61 -56 77.5t-51 61.5t-63.5 59.5t-63.5 30t-83 15.5q-94 0 -151.5 -66t-57.5 -172zM1204 657q104 -135 172 -184t150 -49q88 0 142 70.5t54 152.5q0 102 -57 170t-149 68h-3 q-29 0 -55 -7.5t-54 -24.5t-46.5 -28.5t-47 -42t-36.5 -41t-38 -46.5t-32 -38z" />
<glyph unicode="&#x222b;" horiz-adv-x="1226" d="M297 -371l41 244q59 -25 106 -25q72 0 107 46q63 82 63 342q0 219 -19.5 568t-19.5 548q0 203 36 325.5t116 206.5q104 111 303 111q94 0 156 -27l-33 -233q-45 18 -90 18q-80 0 -123 -63q-59 -78 -59 -373q0 -184 19.5 -523t19.5 -558q0 -303 -84 -455 q-98 -190 -338 -191q-123 0 -201 39z" />
<glyph unicode="&#x2248;" horiz-adv-x="1507" d="M252 371q55 106 155.5 175.5t210.5 69.5q109 0 250 -79q8 -4 49 -30t55.5 -33t45.5 -16t57 -9q66 0 113 38.5t108 126.5l125 -118q-145 -248 -344 -248q-68 0 -125 21.5t-143 70.5q-127 80 -203 80q-49 0 -95 -29t-69.5 -56.5t-66.5 -84.5zM252 829q55 106 155.5 176 t210.5 70q53 0 105.5 -16.5t75 -27.5t71.5 -40l36 -21q26 -15 33 -19.5t26.5 -14.5t29 -13t25.5 -9.5t29.5 -7.5t27.5 -1q63 0 113.5 42t105.5 126l125 -119q-68 -117 -155.5 -182t-184.5 -65q-119 0 -272 92q-47 29 -67.5 40t-59.5 24.5t-76 13.5q-49 0 -95 -29 t-69.5 -55.5t-66.5 -83.5z" />
<glyph unicode="&#x2260;" horiz-adv-x="1538" d="M315 299v199h396l133 307h-529v201h607l116 262l160 -66l-88 -196h315v-201h-393l-135 -307h528v-199h-608l-119 -270l-157 67l90 203h-316z" />
<glyph unicode="&#x2264;" horiz-adv-x="1574" d="M354 -43v205h1110v-205h-1110zM362 766v215l1094 520v-227l-893 -397v-5l895 -399v-229z" />
<glyph unicode="&#x2265;" horiz-adv-x="1572" d="M356 -43v205h1102v-205h-1102zM367 244v229l890 399v5l-890 397v227l1093 -520v-217z" />
<glyph unicode="&#x25ca;" horiz-adv-x="1730" d="M369 801l489 919h283l479 -919l-490 -918h-282zM682 807l266 -528q33 -88 41 -123h10q20 80 41 118l267 519l-265 522q-33 82 -43 131h-8q-12 -49 -45 -131z" />
<glyph unicode="&#xe000;" horiz-adv-x="1050" d="M0 1050h1050v-1050h-1050v1050z" />
<glyph unicode="&#xfb01;" horiz-adv-x="1390" d="M133 743l49 308h131l23 133q20 131 51 210t113 158q168 168 393 168q88 0 154 -37l-52 -321q-74 35 -125 35q-70 0 -105.5 -42t-51.5 -134l-27 -170h260l-49 -308h-260l-117 -743h-373l117 743h-131zM895 0l166 1051h373l-166 -1051h-373zM1102 1454q14 86 86 147.5 t158 61.5t137 -61.5t37 -147.5q-12 -86 -84 -147.5t-158 -61.5t-137 61.5t-39 147.5z" />
<glyph unicode="&#xfb02;" horiz-adv-x="1413" d="M133 743l49 308h131l23 133q20 131 51 210t113 158q168 168 393 168q88 0 154 -37l-52 -321q-74 35 -125 35q-70 0 -105.5 -42t-51.5 -134l-27 -170h260l-49 -308h-260l-117 -743h-373l117 743h-131zM918 0l268 1700h373l-269 -1700h-372z" />
</font>
</defs>
</svg>
